<?xml version="1.0" standalone="no"?>
<!DOCTYPE svg PUBLIC "-//W3C//DTD SVG 20010904//EN"
 "http://www.w3.org/TR/2001/REC-SVG-20010904/DTD/svg10.dtd">
<svg version="1.0" xmlns="http://www.w3.org/2000/svg"
 width="511.000000pt" height="511.000000pt" viewBox="0 0 511.000000 511.000000"
 preserveAspectRatio="xMidYMid meet">
<metadata>
Created by potrace 1.14, written by Peter Selinger 2001-2017
</metadata>
<g transform="translate(0.000000,511.000000) scale(0.100000,-0.100000)"
fill="#000000" stroke="none">
<path d="M2755 4543 c-338 -44 -668 -218 -887 -469 -50 -57 -134 -176 -183
-258 -9 -15 -17 -14 -79 18 -92 46 -189 68 -306 69 -300 0 -554 -189 -637
-477 -25 -84 -32 -259 -14 -323 9 -30 7 -33 -43 -67 -29 -20 -84 -69 -123
-109 -120 -125 -187 -240 -239 -412 -25 -82 -28 -105 -28 -255 -1 -143 2 -176
22 -250 26 -96 84 -225 133 -297 74 -108 231 -249 338 -303 39 -19 48 -21 65
-9 39 24 220 122 315 169 l93 47 -63 7 c-159 17 -278 75 -394 191 -128 128
-185 263 -185 440 0 251 116 430 378 584 74 43 122 78 122 87 0 9 -17 69 -37
133 -47 147 -50 228 -11 312 36 79 89 133 166 171 56 28 76 33 141 33 51 0 92
-6 124 -19 26 -10 121 -74 209 -142 89 -68 164 -124 167 -124 3 1 44 82 91
182 129 274 213 392 367 515 46 36 83 69 83 74 0 5 6 9 14 9 7 0 61 22 118 50
234 112 479 135 732 70 98 -25 267 -104 353 -166 150 -107 290 -282 363 -452
72 -169 94 -305 83 -517 -4 -82 -8 -156 -8 -164 0 -9 50 -36 130 -70 153 -66
201 -98 279 -181 171 -185 209 -450 97 -675 -95 -191 -275 -317 -491 -344
l-65 -8 35 -13 c42 -16 310 -154 360 -185 l36 -23 39 21 c62 31 179 123 231
180 113 124 192 281 226 447 26 123 21 315 -11 435 -62 234 -224 446 -438 573
l-86 52 -4 102 c-25 762 -647 1355 -1411 1347 -76 -1 -150 -4 -167 -6z"/>
<path d="M2472 2830 c-152 -21 -260 -122 -301 -285 -12 -47 -5 -359 10 -425 6
-24 21 -67 33 -95 13 -27 27 -61 31 -74 4 -14 29 -61 55 -105 27 -45 45 -84
42 -87 -4 -4 -56 -23 -117 -42 -66 -22 -172 -68 -263 -117 -84 -44 -157 -80
-163 -80 -5 0 -49 -27 -97 -59 -59 -40 -97 -75 -119 -108 -33 -48 -33 -50 -33
-166 l0 -117 1020 0 1020 0 0 116 c0 112 -1 117 -30 159 -17 24 -56 64 -88 89
-78 61 -422 234 -571 286 -67 24 -121 46 -121 51 0 4 11 21 25 37 14 17 25 34
25 39 0 5 15 35 34 66 19 31 48 99 66 151 31 93 32 101 33 288 2 178 0 198
-20 251 -27 71 -91 149 -147 181 -74 42 -210 61 -324 46z"/>
<path d="M1430 2353 c-110 -13 -182 -59 -226 -145 -22 -44 -24 -59 -24 -197 0
-142 2 -155 30 -233 17 -46 46 -108 65 -140 19 -31 35 -58 35 -61 0 -3 -30
-15 -67 -27 -64 -21 -333 -155 -415 -206 -21 -13 -50 -43 -65 -66 -24 -35 -29
-54 -32 -125 l-3 -83 335 0 334 0 5 133 c4 118 8 137 31 184 34 66 70 106 146
163 67 50 107 109 151 222 28 70 29 80 30 239 0 164 0 165 -28 210 -38 59 -93
106 -139 118 -52 13 -121 19 -163 14z"/>
<path d="M3595 2350 c-27 -4 -62 -13 -77 -18 -48 -20 -105 -80 -128 -137 -21
-52 -22 -67 -18 -218 l5 -162 54 -110 c50 -101 58 -113 110 -147 81 -53 140
-124 167 -199 18 -52 22 -85 22 -176 l0 -113 335 0 336 0 -3 102 -3 102 -57
46 c-69 56 -322 187 -433 226 -44 15 -82 29 -84 30 -2 2 7 17 18 33 12 17 41
70 63 118 40 86 42 91 49 233 11 193 -8 262 -92 333 -56 48 -165 72 -264 57z"/>
<path d="M725 795 c-43 -42 -27 -76 47 -101 60 -19 71 -30 57 -56 -15 -27 -57
-23 -71 7 -7 16 -19 25 -35 25 -32 0 -30 -33 3 -59 58 -46 164 -14 164 49 0
34 -19 50 -79 70 -34 11 -46 20 -46 35 0 28 40 32 57 6 17 -27 58 -28 58 -2 0
52 -111 71 -155 26z"/>
<path d="M934 807 c-2 -7 -3 -58 -2 -113 3 -87 5 -99 22 -102 22 -5 36 14 36
49 0 15 6 32 14 38 11 9 21 2 50 -39 23 -31 43 -50 56 -50 30 0 25 27 -17 88
l-38 54 33 26 c35 29 43 62 15 62 -10 0 -39 -21 -65 -47 l-48 -47 0 31 c0 17
-3 38 -6 47 -7 19 -43 21 -50 3z"/>
<path d="M1165 809 c-4 -5 9 -34 28 -64 26 -39 37 -66 39 -101 3 -45 5 -49 28
-49 23 0 25 4 28 49 2 35 13 62 39 101 19 30 32 59 28 64 -13 23 -43 10 -70
-31 l-28 -42 -24 42 c-24 41 -54 54 -68 31z"/>
<path d="M1420 793 c-58 -52 -49 -169 16 -193 69 -27 154 4 154 56 0 33 -36
33 -52 -1 -15 -33 -53 -43 -78 -20 -14 13 -20 31 -20 64 0 83 48 117 92 66 26
-30 58 -33 58 -7 0 30 -36 55 -88 60 -43 4 -53 1 -82 -25z"/>
<path d="M1681 806 c-70 -39 -67 -172 4 -204 60 -27 141 -6 163 43 27 59 8
136 -39 161 -35 17 -96 18 -128 0z m99 -36 c43 -43 16 -150 -38 -150 -32 0
-55 36 -55 85 0 74 49 109 93 65z"/>
<path d="M1904 807 c-2 -7 -3 -58 -2 -113 3 -91 5 -99 23 -99 18 0 21 8 25 68
l5 68 45 -68 c36 -54 50 -68 70 -68 l25 0 0 110 c0 103 -1 110 -20 110 -18 0
-21 -8 -25 -69 l-5 -69 -48 71 c-33 50 -53 72 -67 72 -12 0 -23 -6 -26 -13z"/>
<path d="M2270 793 c-58 -52 -49 -169 16 -193 69 -27 154 4 154 56 0 33 -36
33 -52 -1 -15 -33 -53 -43 -78 -20 -14 13 -20 31 -20 64 0 83 48 117 92 66 26
-30 58 -33 58 -7 0 30 -36 55 -88 60 -43 4 -53 1 -82 -25z"/>
<path d="M2531 806 c-70 -39 -67 -172 4 -204 60 -27 141 -6 163 43 27 59 8
136 -39 161 -35 17 -96 18 -128 0z m99 -36 c43 -43 16 -150 -38 -150 -32 0
-55 36 -55 85 0 74 49 109 93 65z"/>
<path d="M2754 807 c-2 -7 -3 -58 -2 -113 3 -91 5 -99 23 -99 18 0 21 8 25 68
l5 68 45 -68 c36 -54 50 -68 70 -68 l25 0 0 110 c0 103 -1 110 -20 110 -18 0
-21 -8 -25 -69 l-5 -69 -48 71 c-33 50 -53 72 -67 72 -12 0 -23 -6 -26 -13z"/>
<path d="M3015 795 c-43 -42 -27 -76 47 -101 60 -19 71 -30 57 -56 -15 -27
-57 -23 -71 7 -7 16 -19 25 -35 25 -32 0 -30 -33 3 -59 58 -46 164 -14 164 49
0 34 -19 50 -79 70 -34 11 -46 20 -46 35 0 28 40 32 57 6 17 -27 58 -28 58 -2
0 52 -111 71 -155 26z"/>
<path d="M3227 813 c-4 -3 -7 -44 -7 -90 0 -76 2 -86 25 -108 35 -36 115 -36
151 0 23 23 25 31 22 112 -3 77 -5 88 -22 91 -28 6 -36 -15 -36 -99 0 -81 -11
-104 -47 -97 -28 5 -43 48 -43 126 0 63 -2 72 -18 72 -10 0 -22 -3 -25 -7z"/>
<path d="M3475 808 c-3 -8 -4 -59 -3 -114 l3 -99 80 0 c64 0 80 3 80 15 0 11
-14 16 -57 18 l-57 3 -3 92 c-3 78 -6 92 -21 95 -9 2 -19 -3 -22 -10z"/>
<path d="M3650 800 c0 -16 7 -20 35 -20 l34 0 3 -92 c3 -92 3 -93 28 -93 25 0
25 1 28 93 l3 92 34 0 c28 0 35 4 35 20 0 19 -7 20 -100 20 -93 0 -100 -1
-100 -20z"/>
<path d="M3885 807 c-3 -7 -4 -58 -3 -113 3 -98 3 -99 28 -99 l25 0 0 110 c0
107 -1 110 -23 113 -12 2 -24 -3 -27 -11z"/>
<path d="M3994 807 c-2 -7 -3 -58 -2 -113 3 -91 5 -99 23 -99 18 0 21 8 25 68
l5 68 45 -68 c36 -54 50 -68 70 -68 l25 0 0 110 c0 103 -1 110 -20 110 -18 0
-21 -8 -25 -69 l-5 -69 -48 71 c-33 50 -53 72 -67 72 -12 0 -23 -6 -26 -13z"/>
<path d="M4294 810 c-67 -27 -86 -125 -36 -181 35 -39 106 -50 165 -25 37 15
38 17 35 58 l-3 43 -52 0 c-54 0 -75 -17 -28 -23 19 -3 25 -9 25 -27 0 -39
-57 -48 -90 -15 -42 42 -16 150 37 150 9 0 29 -12 44 -26 17 -16 34 -24 43
-21 24 9 19 33 -10 56 -28 22 -90 27 -130 11z"/>
</g>
</svg>
